<mxfile host="app.diagrams.net" agent="Mozilla/5.0 (Windows NT 10.0; Win64; x64) AppleWebKit/537.36 (KHTML, like Gecko) Chrome/141.0.0.0 Safari/537.36" version="28.2.8" pages="5">
  <diagram name="IDEF0 (A-0)" id="7Jq3Y8S6lC9NOMM1xJ_B">
    <mxGraphModel dx="1052" dy="562" grid="1" gridSize="5" guides="1" tooltips="1" connect="1" arrows="1" fold="1" page="1" pageScale="1" pageWidth="827" pageHeight="1169" math="0" shadow="0">
      <root>
        <mxCell id="0" />
        <mxCell id="1" parent="0" />
        <mxCell id="tGOF6NFMbqGoNRM0eZMm-23" value="Управление датчиками" style="rounded=0;whiteSpace=wrap;html=1;strokeWidth=2;points=[[0,0.33,0,0,0],[0,0.67,0,0,0],[0.2,1,0,0,0],[0.33,0,0,0,0],[0.4,1,0,0,0],[0.6,1,0,0,0],[0.67,0,0,0,0],[0.8,1,0,0,0],[1,0.2,0,0,0],[1,0.4,0,0,0],[1,0.6,0,0,0],[1,0.8,0,0,0]];fontSize=20;fontStyle=1" vertex="1" parent="1">
          <mxGeometry x="320" y="280" width="200" height="120" as="geometry" />
        </mxCell>
        <mxCell id="tGOF6NFMbqGoNRM0eZMm-26" value="A-0" style="text;html=1;whiteSpace=wrap;strokeColor=none;fillColor=none;align=center;verticalAlign=middle;rounded=0;fontStyle=1" vertex="1" parent="1">
          <mxGeometry x="480" y="380" width="40" height="20" as="geometry" />
        </mxCell>
        <mxCell id="tGOF6NFMbqGoNRM0eZMm-27" value="Команды оператора" style="endArrow=classic;html=1;rounded=0;entryX=0;entryY=0.33;entryDx=0;entryDy=0;entryPerimeter=0;strokeWidth=2;fontStyle=1" edge="1" parent="1" target="tGOF6NFMbqGoNRM0eZMm-23">
          <mxGeometry width="50" height="50" relative="1" as="geometry">
            <mxPoint x="60" y="320" as="sourcePoint" />
            <mxPoint x="320" y="320.4" as="targetPoint" />
          </mxGeometry>
        </mxCell>
        <mxCell id="tGOF6NFMbqGoNRM0eZMm-28" value="Данные датчиков" style="endArrow=classic;html=1;rounded=0;entryX=0;entryY=0.67;entryDx=0;entryDy=0;entryPerimeter=0;strokeWidth=2;fontStyle=1" edge="1" parent="1" target="tGOF6NFMbqGoNRM0eZMm-23">
          <mxGeometry width="50" height="50" relative="1" as="geometry">
            <mxPoint x="60" y="360" as="sourcePoint" />
            <mxPoint x="320" y="380" as="targetPoint" />
          </mxGeometry>
        </mxCell>
        <mxCell id="tGOF6NFMbqGoNRM0eZMm-31" value="Серверное ПО" style="endArrow=classic;html=1;rounded=0;strokeWidth=2;entryX=0.2;entryY=1;entryDx=0;entryDy=0;entryPerimeter=0;fontStyle=1" edge="1" parent="1" target="tGOF6NFMbqGoNRM0eZMm-23">
          <mxGeometry x="-0.7143" width="50" height="50" relative="1" as="geometry">
            <mxPoint x="360" y="540" as="sourcePoint" />
            <mxPoint x="354" y="415" as="targetPoint" />
            <mxPoint as="offset" />
          </mxGeometry>
        </mxCell>
        <mxCell id="tGOF6NFMbqGoNRM0eZMm-32" value="Клиентское ПО" style="endArrow=classic;html=1;rounded=0;strokeWidth=2;entryX=0.4;entryY=1;entryDx=0;entryDy=0;entryPerimeter=0;fontStyle=1" edge="1" parent="1" target="tGOF6NFMbqGoNRM0eZMm-23">
          <mxGeometry x="-0.4286" width="50" height="50" relative="1" as="geometry">
            <mxPoint x="400" y="540" as="sourcePoint" />
            <mxPoint x="390" y="420" as="targetPoint" />
            <mxPoint as="offset" />
          </mxGeometry>
        </mxCell>
        <mxCell id="tGOF6NFMbqGoNRM0eZMm-33" value="Датчики" style="endArrow=classic;html=1;rounded=0;strokeWidth=2;entryX=0.6;entryY=1;entryDx=0;entryDy=0;entryPerimeter=0;fontStyle=1" edge="1" parent="1" target="tGOF6NFMbqGoNRM0eZMm-23">
          <mxGeometry x="-0.7143" width="50" height="50" relative="1" as="geometry">
            <mxPoint x="440" y="540" as="sourcePoint" />
            <mxPoint x="445" y="410" as="targetPoint" />
            <mxPoint as="offset" />
          </mxGeometry>
        </mxCell>
        <mxCell id="tGOF6NFMbqGoNRM0eZMm-34" value="СУБД" style="endArrow=classic;html=1;rounded=0;strokeWidth=2;entryX=0.8;entryY=1;entryDx=0;entryDy=0;entryPerimeter=0;fontStyle=1" edge="1" parent="1" target="tGOF6NFMbqGoNRM0eZMm-23">
          <mxGeometry x="-0.4286" width="50" height="50" relative="1" as="geometry">
            <mxPoint x="480" y="540" as="sourcePoint" />
            <mxPoint x="480" y="400" as="targetPoint" />
            <mxPoint as="offset" />
          </mxGeometry>
        </mxCell>
        <mxCell id="tGOF6NFMbqGoNRM0eZMm-35" value="Политика&amp;nbsp;&lt;div&gt;безопасности&lt;/div&gt;" style="endArrow=classic;html=1;rounded=0;entryX=0.33;entryY=0;entryDx=0;entryDy=0;entryPerimeter=0;strokeWidth=2;fontStyle=1" edge="1" parent="1" target="tGOF6NFMbqGoNRM0eZMm-23">
          <mxGeometry x="-0.2857" y="-1" width="50" height="50" relative="1" as="geometry">
            <mxPoint x="386" y="140" as="sourcePoint" />
            <mxPoint x="585" y="120" as="targetPoint" />
            <mxPoint as="offset" />
          </mxGeometry>
        </mxCell>
        <mxCell id="tGOF6NFMbqGoNRM0eZMm-36" value="Конфигурация&amp;nbsp;&lt;div&gt;системы&lt;/div&gt;" style="endArrow=classic;html=1;rounded=0;entryX=0.67;entryY=0;entryDx=0;entryDy=0;entryPerimeter=0;strokeWidth=2;fontStyle=1" edge="1" parent="1" target="tGOF6NFMbqGoNRM0eZMm-23">
          <mxGeometry x="-0.7692" width="50" height="50" relative="1" as="geometry">
            <mxPoint x="454" y="140" as="sourcePoint" />
            <mxPoint x="465" y="280" as="targetPoint" />
            <mxPoint y="-1" as="offset" />
          </mxGeometry>
        </mxCell>
        <mxCell id="tGOF6NFMbqGoNRM0eZMm-37" value="Графики" style="endArrow=classic;html=1;rounded=0;strokeWidth=2;exitX=1;exitY=0.2;exitDx=0;exitDy=0;exitPerimeter=0;fontStyle=1" edge="1" parent="1" source="tGOF6NFMbqGoNRM0eZMm-23">
          <mxGeometry width="50" height="50" relative="1" as="geometry">
            <mxPoint x="575" y="310" as="sourcePoint" />
            <mxPoint x="780" y="305" as="targetPoint" />
          </mxGeometry>
        </mxCell>
        <mxCell id="tGOF6NFMbqGoNRM0eZMm-38" value="Аварийные оповещения" style="endArrow=classic;html=1;rounded=0;strokeWidth=2;exitX=1;exitY=0.4;exitDx=0;exitDy=0;exitPerimeter=0;fontStyle=1" edge="1" parent="1" source="tGOF6NFMbqGoNRM0eZMm-23">
          <mxGeometry width="50" height="50" relative="1" as="geometry">
            <mxPoint x="745" y="320" as="sourcePoint" />
            <mxPoint x="780" y="328" as="targetPoint" />
          </mxGeometry>
        </mxCell>
        <mxCell id="tGOF6NFMbqGoNRM0eZMm-39" value="Отчеты" style="endArrow=classic;html=1;rounded=0;strokeWidth=2;exitX=1;exitY=0.6;exitDx=0;exitDy=0;exitPerimeter=0;fontStyle=1" edge="1" parent="1" source="tGOF6NFMbqGoNRM0eZMm-23">
          <mxGeometry width="50" height="50" relative="1" as="geometry">
            <mxPoint x="675" y="350" as="sourcePoint" />
            <mxPoint x="780" y="352" as="targetPoint" />
          </mxGeometry>
        </mxCell>
        <mxCell id="tGOF6NFMbqGoNRM0eZMm-40" value="Управляющие команды" style="endArrow=classic;html=1;rounded=0;strokeWidth=2;exitX=1;exitY=0.8;exitDx=0;exitDy=0;exitPerimeter=0;fontStyle=1" edge="1" parent="1" source="tGOF6NFMbqGoNRM0eZMm-23">
          <mxGeometry width="50" height="50" relative="1" as="geometry">
            <mxPoint x="800" y="395" as="sourcePoint" />
            <mxPoint x="780" y="376" as="targetPoint" />
          </mxGeometry>
        </mxCell>
        <mxCell id="QH7YImqG8IhqZOoB8Chq-6" value="&lt;h1 style=&quot;margin-top: 0px;&quot;&gt;Цель&lt;/h1&gt;&lt;p&gt;Автоматизация контроля и управления датчиками&lt;/p&gt;" style="text;html=1;whiteSpace=wrap;overflow=hidden;rounded=0;" vertex="1" parent="1">
          <mxGeometry x="60" y="460" width="180" height="80" as="geometry" />
        </mxCell>
        <mxCell id="QH7YImqG8IhqZOoB8Chq-7" value="&lt;h1 style=&quot;margin-top: 0px;&quot;&gt;Точка зрения&lt;/h1&gt;&lt;p&gt;Оператор системы&lt;/p&gt;" style="text;html=1;whiteSpace=wrap;overflow=hidden;rounded=0;" vertex="1" parent="1">
          <mxGeometry x="600" y="460" width="180" height="80" as="geometry" />
        </mxCell>
      </root>
    </mxGraphModel>
  </diagram>
  <diagram name="IDEF0 (A0)" id="ALMEn3vyehKBoplaJGKN">
    <mxGraphModel dx="1503" dy="803" grid="1" gridSize="5" guides="1" tooltips="1" connect="1" arrows="1" fold="1" page="1" pageScale="1" pageWidth="1169" pageHeight="827" math="0" shadow="0">
      <root>
        <mxCell id="0" />
        <mxCell id="1" parent="0" />
        <mxCell id="4PAa3yPWKefCa1C-KV82-6" value="СУБД" style="endArrow=classic;html=1;rounded=0;strokeWidth=2;entryX=0.67;entryY=1;entryDx=0;entryDy=0;entryPerimeter=0;fontStyle=1;jumpStyle=arc;" edge="1" parent="1" target="fi1P29JUxcHFO6wAn_LQ-11">
          <mxGeometry x="-0.8095" width="50" height="50" relative="1" as="geometry">
            <mxPoint x="560" y="720" as="sourcePoint" />
            <mxPoint x="560" y="405" as="targetPoint" />
            <mxPoint as="offset" />
          </mxGeometry>
        </mxCell>
        <mxCell id="fi1P29JUxcHFO6wAn_LQ-10" value="" style="group" vertex="1" connectable="0" parent="1">
          <mxGeometry x="480" y="320" width="120" height="80" as="geometry" />
        </mxCell>
        <mxCell id="fi1P29JUxcHFO6wAn_LQ-11" value="&lt;font style=&quot;font-size: 15px;&quot;&gt;Обработка данных&lt;/font&gt;" style="rounded=0;whiteSpace=wrap;html=1;strokeWidth=2;points=[[0,0.25,0,0,0],[0,0.5,0,0,0],[0,0.75,0,0,0],[0.33,0,0,0,0],[0.33,1,0,0,0],[0.5,0,0,0,0],[0.67,0,0,0,0],[0.67,1,0,0,0],[1,0.25,0,0,0],[1,0.5,0,0,0],[1,0.75,0,0,0]];fontSize=20;fontStyle=1" vertex="1" parent="fi1P29JUxcHFO6wAn_LQ-10">
          <mxGeometry width="120" height="80" as="geometry" />
        </mxCell>
        <mxCell id="fi1P29JUxcHFO6wAn_LQ-12" value="A2" style="text;html=1;whiteSpace=wrap;strokeColor=none;fillColor=none;align=center;verticalAlign=middle;rounded=0;fontStyle=1" vertex="1" parent="fi1P29JUxcHFO6wAn_LQ-10">
          <mxGeometry x="80" y="60" width="40" height="20" as="geometry" />
        </mxCell>
        <mxCell id="fi1P29JUxcHFO6wAn_LQ-16" value="" style="group" vertex="1" connectable="0" parent="1">
          <mxGeometry x="720" y="480" width="120" height="80" as="geometry" />
        </mxCell>
        <mxCell id="fi1P29JUxcHFO6wAn_LQ-17" value="&lt;font style=&quot;font-size: 15px;&quot;&gt;Работа с данными&lt;/font&gt;" style="rounded=0;whiteSpace=wrap;html=1;strokeWidth=2;points=[[0,0.25,0,0,0],[0,0.5,0,0,0],[0,0.75,0,0,0],[0.25,1,0,0,0],[0.33,0,0,0,0],[0.5,0,0,0,0],[0.5,1,0,0,0],[0.67,0,0,0,0],[0.75,1,0,0,0],[1,0.25,0,0,0],[1,0.5,0,0,0],[1,0.75,0,0,0]];fontSize=20;fontStyle=1" vertex="1" parent="fi1P29JUxcHFO6wAn_LQ-16">
          <mxGeometry width="120" height="80" as="geometry" />
        </mxCell>
        <mxCell id="fi1P29JUxcHFO6wAn_LQ-18" value="A3" style="text;html=1;whiteSpace=wrap;strokeColor=none;fillColor=none;align=center;verticalAlign=middle;rounded=0;fontStyle=1" vertex="1" parent="fi1P29JUxcHFO6wAn_LQ-16">
          <mxGeometry x="80" y="60" width="40" height="20" as="geometry" />
        </mxCell>
        <mxCell id="ElhsjerCYWhC2wrqGyyW-1" value="Данные&amp;nbsp;&amp;nbsp;&lt;span style=&quot;background-color: light-dark(#ffffff, var(--ge-dark-color, #121212)); color: light-dark(rgb(0, 0, 0), rgb(255, 255, 255));&quot;&gt;датчиков&lt;/span&gt;" style="endArrow=classic;html=1;rounded=0;entryX=0;entryY=0.5;entryDx=0;entryDy=0;entryPerimeter=0;strokeWidth=2;fontStyle=1" edge="1" parent="1" target="vnBG98yetJRQlTRTAPx6-1">
          <mxGeometry width="50" height="50" relative="1" as="geometry">
            <mxPoint x="80" y="200" as="sourcePoint" />
            <mxPoint x="240" y="199.5" as="targetPoint" />
            <mxPoint as="offset" />
          </mxGeometry>
        </mxCell>
        <mxCell id="RqLwYsNAHgiSxNxJcg_I-1" value="Собранные данные" style="endArrow=classic;html=1;rounded=0;entryX=0;entryY=0.5;entryDx=0;entryDy=0;entryPerimeter=0;strokeWidth=2;exitX=1;exitY=0.5;exitDx=0;exitDy=0;exitPerimeter=0;edgeStyle=orthogonalEdgeStyle;fontStyle=1" edge="1" parent="1" source="vnBG98yetJRQlTRTAPx6-1" target="fi1P29JUxcHFO6wAn_LQ-11">
          <mxGeometry width="50" height="50" relative="1" as="geometry">
            <mxPoint x="380" y="199.5" as="sourcePoint" />
            <mxPoint x="640" y="199.5" as="targetPoint" />
          </mxGeometry>
        </mxCell>
        <mxCell id="RqLwYsNAHgiSxNxJcg_I-2" value="Обработанные данные" style="endArrow=classic;html=1;rounded=0;entryX=0;entryY=0.25;entryDx=0;entryDy=0;entryPerimeter=0;strokeWidth=2;edgeStyle=orthogonalEdgeStyle;exitX=1;exitY=0.75;exitDx=0;exitDy=0;exitPerimeter=0;fontStyle=1" edge="1" parent="1" source="fi1P29JUxcHFO6wAn_LQ-11" target="fi1P29JUxcHFO6wAn_LQ-17">
          <mxGeometry width="50" height="50" relative="1" as="geometry">
            <mxPoint x="615" y="385" as="sourcePoint" />
            <mxPoint x="645" y="500" as="targetPoint" />
          </mxGeometry>
        </mxCell>
        <mxCell id="RqLwYsNAHgiSxNxJcg_I-3" value="Отчеты" style="endArrow=classic;html=1;rounded=0;strokeWidth=2;exitX=1;exitY=0.25;exitDx=0;exitDy=0;exitPerimeter=0;fontStyle=1" edge="1" parent="1" source="fi1P29JUxcHFO6wAn_LQ-17">
          <mxGeometry width="50" height="50" relative="1" as="geometry">
            <mxPoint x="800" y="495" as="sourcePoint" />
            <mxPoint x="1000" y="500" as="targetPoint" />
          </mxGeometry>
        </mxCell>
        <mxCell id="RqLwYsNAHgiSxNxJcg_I-4" value="Графики" style="endArrow=classic;html=1;rounded=0;strokeWidth=2;exitX=1;exitY=0.5;exitDx=0;exitDy=0;exitPerimeter=0;fontStyle=1" edge="1" parent="1" source="fi1P29JUxcHFO6wAn_LQ-17">
          <mxGeometry width="50" height="50" relative="1" as="geometry">
            <mxPoint x="800" y="519.8" as="sourcePoint" />
            <mxPoint x="1000" y="520" as="targetPoint" />
          </mxGeometry>
        </mxCell>
        <mxCell id="RqLwYsNAHgiSxNxJcg_I-5" value="Подтверждение команд" style="endArrow=classic;html=1;rounded=0;strokeWidth=2;exitX=1;exitY=0.75;exitDx=0;exitDy=0;exitPerimeter=0;fontStyle=1" edge="1" parent="1" source="fi1P29JUxcHFO6wAn_LQ-17">
          <mxGeometry width="50" height="50" relative="1" as="geometry">
            <mxPoint x="800" y="540" as="sourcePoint" />
            <mxPoint x="1000" y="540" as="targetPoint" />
          </mxGeometry>
        </mxCell>
        <mxCell id="4PAa3yPWKefCa1C-KV82-1" value="Датчики" style="endArrow=classic;html=1;rounded=0;strokeWidth=2;entryX=0.33;entryY=1;entryDx=0;entryDy=0;entryPerimeter=0;fontStyle=1" edge="1" parent="1" target="vnBG98yetJRQlTRTAPx6-1">
          <mxGeometry x="-0.9138" width="50" height="50" relative="1" as="geometry">
            <mxPoint x="280" y="720" as="sourcePoint" />
            <mxPoint x="280" y="255" as="targetPoint" />
            <mxPoint as="offset" />
          </mxGeometry>
        </mxCell>
        <mxCell id="4PAa3yPWKefCa1C-KV82-2" value="Клиентское ПО" style="endArrow=classic;html=1;rounded=0;strokeWidth=2;entryX=0.75;entryY=1;entryDx=0;entryDy=0;entryPerimeter=0;fontStyle=1" edge="1" parent="1" target="fi1P29JUxcHFO6wAn_LQ-17">
          <mxGeometry x="-0.7692" width="50" height="50" relative="1" as="geometry">
            <mxPoint x="810" y="720" as="sourcePoint" />
            <mxPoint x="825" y="585" as="targetPoint" />
            <mxPoint y="1" as="offset" />
          </mxGeometry>
        </mxCell>
        <mxCell id="4PAa3yPWKefCa1C-KV82-3" value="Серверное ПО" style="endArrow=classic;html=1;rounded=0;strokeWidth=2;entryX=0.33;entryY=1;entryDx=0;entryDy=0;entryPerimeter=0;fontStyle=1" edge="1" parent="1" target="fi1P29JUxcHFO6wAn_LQ-11">
          <mxGeometry x="-0.9286" width="50" height="50" relative="1" as="geometry">
            <mxPoint x="520" y="720" as="sourcePoint" />
            <mxPoint x="520" y="405" as="targetPoint" />
            <mxPoint as="offset" />
          </mxGeometry>
        </mxCell>
        <mxCell id="vnBG98yetJRQlTRTAPx6-1" value="&lt;font style=&quot;font-size: 15px;&quot;&gt;Сбор данных&lt;/font&gt;" style="rounded=0;whiteSpace=wrap;html=1;strokeWidth=2;points=[[0,0.25,0,0,0],[0,0.5,0,0,0],[0,0.75,0,0,0],[0.33,0,0,0,0],[0.33,1,0,0,0],[0.5,0,0,0,0],[0.67,0,0,0,0],[0.67,1,0,0,0],[1,0.25,0,0,0],[1,0.5,0,0,0],[1,0.75,0,0,0]];fontSize=20;fontStyle=1" vertex="1" parent="1">
          <mxGeometry x="240" y="160" width="120" height="80" as="geometry" />
        </mxCell>
        <mxCell id="fi1P29JUxcHFO6wAn_LQ-1" value="A1" style="text;html=1;whiteSpace=wrap;strokeColor=none;fillColor=none;align=center;verticalAlign=middle;rounded=0;fontStyle=1" vertex="1" parent="1">
          <mxGeometry x="320" y="220" width="40" height="20" as="geometry" />
        </mxCell>
        <mxCell id="4PAa3yPWKefCa1C-KV82-4" value="" style="endArrow=classic;html=1;rounded=0;strokeWidth=2;entryX=0;entryY=1;entryDx=0;entryDy=0;edgeStyle=orthogonalEdgeStyle;" edge="1" parent="1" target="fi1P29JUxcHFO6wAn_LQ-1">
          <mxGeometry x="-0.8571" width="50" height="50" relative="1" as="geometry">
            <mxPoint x="520" y="640" as="sourcePoint" />
            <mxPoint x="319.16999999999996" y="270" as="targetPoint" />
            <mxPoint as="offset" />
            <Array as="points">
              <mxPoint x="520" y="640" />
              <mxPoint x="320" y="640" />
            </Array>
          </mxGeometry>
        </mxCell>
        <mxCell id="4PAa3yPWKefCa1C-KV82-5" value="" style="endArrow=classic;html=1;rounded=0;strokeWidth=2;edgeStyle=orthogonalEdgeStyle;entryX=0.5;entryY=1;entryDx=0;entryDy=0;entryPerimeter=0;jumpStyle=arc;" edge="1" parent="1" target="fi1P29JUxcHFO6wAn_LQ-17">
          <mxGeometry x="-0.8571" width="50" height="50" relative="1" as="geometry">
            <mxPoint x="520" y="640" as="sourcePoint" />
            <mxPoint x="760" y="560" as="targetPoint" />
            <mxPoint as="offset" />
            <Array as="points">
              <mxPoint x="780" y="640" />
            </Array>
          </mxGeometry>
        </mxCell>
        <mxCell id="4PAa3yPWKefCa1C-KV82-7" value="" style="endArrow=classic;html=1;rounded=0;strokeWidth=2;edgeStyle=orthogonalEdgeStyle;entryX=0.25;entryY=1;entryDx=0;entryDy=0;entryPerimeter=0;" edge="1" parent="1" target="fi1P29JUxcHFO6wAn_LQ-17">
          <mxGeometry x="-0.8571" width="50" height="50" relative="1" as="geometry">
            <mxPoint x="560" y="600" as="sourcePoint" />
            <mxPoint x="747" y="580" as="targetPoint" />
            <mxPoint as="offset" />
            <Array as="points">
              <mxPoint x="560" y="600" />
              <mxPoint x="750" y="600" />
            </Array>
          </mxGeometry>
        </mxCell>
        <mxCell id="4PAa3yPWKefCa1C-KV82-8" value="Политика безопасности" style="endArrow=classic;html=1;rounded=0;strokeWidth=2;entryX=0.67;entryY=0;entryDx=0;entryDy=0;entryPerimeter=0;fontStyle=1" edge="1" parent="1" target="fi1P29JUxcHFO6wAn_LQ-17">
          <mxGeometry x="-0.8416" width="50" height="50" relative="1" as="geometry">
            <mxPoint x="800" y="40" as="sourcePoint" />
            <mxPoint x="800" y="420" as="targetPoint" />
            <mxPoint as="offset" />
          </mxGeometry>
        </mxCell>
        <mxCell id="4PAa3yPWKefCa1C-KV82-9" value="" style="endArrow=classic;html=1;rounded=0;strokeWidth=2;entryX=0.5;entryY=0;entryDx=0;entryDy=0;entryPerimeter=0;edgeStyle=orthogonalEdgeStyle;" edge="1" parent="1" target="vnBG98yetJRQlTRTAPx6-1">
          <mxGeometry x="-0.7692" width="50" height="50" relative="1" as="geometry">
            <mxPoint x="545" y="120" as="sourcePoint" />
            <mxPoint x="285" y="-90" as="targetPoint" />
            <mxPoint as="offset" />
            <Array as="points">
              <mxPoint x="300" y="120" />
            </Array>
          </mxGeometry>
        </mxCell>
        <mxCell id="4PAa3yPWKefCa1C-KV82-10" value="Конфигурация системы" style="endArrow=classic;html=1;rounded=0;strokeWidth=2;entryX=0.5;entryY=0;entryDx=0;entryDy=0;entryPerimeter=0;fontStyle=1;jumpStyle=none;" edge="1" parent="1" target="fi1P29JUxcHFO6wAn_LQ-11">
          <mxGeometry x="-0.7143" width="50" height="50" relative="1" as="geometry">
            <mxPoint x="540" y="40" as="sourcePoint" />
            <mxPoint x="539.5" y="315" as="targetPoint" />
            <mxPoint as="offset" />
          </mxGeometry>
        </mxCell>
        <mxCell id="vaRQIDXX27KsOizOGc4c-1" value="" style="endArrow=classic;html=1;rounded=0;strokeWidth=2;entryX=0.33;entryY=0;entryDx=0;entryDy=0;entryPerimeter=0;edgeStyle=orthogonalEdgeStyle;jumpStyle=arc;" edge="1" parent="1" target="fi1P29JUxcHFO6wAn_LQ-17">
          <mxGeometry x="-0.7692" width="50" height="50" relative="1" as="geometry">
            <mxPoint x="540" y="120" as="sourcePoint" />
            <mxPoint x="555" y="170" as="targetPoint" />
            <mxPoint as="offset" />
            <Array as="points">
              <mxPoint x="540" y="120" />
              <mxPoint x="760" y="120" />
            </Array>
          </mxGeometry>
        </mxCell>
        <mxCell id="3HqXLvLEMQnxaT8mNxa1-1" value="Команды оператора" style="endArrow=classic;html=1;rounded=0;strokeWidth=2;entryX=0;entryY=0.75;entryDx=0;entryDy=0;entryPerimeter=0;fontStyle=1;jumpStyle=arc;" edge="1" parent="1" target="fi1P29JUxcHFO6wAn_LQ-17">
          <mxGeometry x="-0.7424" width="50" height="50" relative="1" as="geometry">
            <mxPoint x="80" y="540" as="sourcePoint" />
            <mxPoint x="700" y="555" as="targetPoint" />
            <mxPoint as="offset" />
          </mxGeometry>
        </mxCell>
        <mxCell id="vaRQIDXX27KsOizOGc4c-2" value="Аварийные оповещения" style="endArrow=classic;html=1;rounded=0;strokeWidth=2;exitX=1;exitY=0.25;exitDx=0;exitDy=0;exitPerimeter=0;fontStyle=1;jumpStyle=arc;" edge="1" parent="1" source="fi1P29JUxcHFO6wAn_LQ-11">
          <mxGeometry x="0.5682" width="50" height="50" relative="1" as="geometry">
            <mxPoint x="570" y="345.20000000000005" as="sourcePoint" />
            <mxPoint x="1000" y="340" as="targetPoint" />
            <mxPoint as="offset" />
          </mxGeometry>
        </mxCell>
      </root>
    </mxGraphModel>
  </diagram>
  <diagram name="IDEF0 (A1)" id="WchPvKE4eh2R-9i637T4">
    <mxGraphModel dx="1052" dy="562" grid="0" gridSize="5" guides="1" tooltips="1" connect="1" arrows="1" fold="1" page="1" pageScale="1" pageWidth="827" pageHeight="1169" math="0" shadow="0">
      <root>
        <mxCell id="XWugfFXvH3sv7iFGdLBi-0" />
        <mxCell id="XWugfFXvH3sv7iFGdLBi-1" parent="XWugfFXvH3sv7iFGdLBi-0" />
        <mxCell id="XWugfFXvH3sv7iFGdLBi-2" value="" style="group" vertex="1" connectable="0" parent="XWugfFXvH3sv7iFGdLBi-1">
          <mxGeometry x="400" y="320" width="120" height="80" as="geometry" />
        </mxCell>
        <mxCell id="XWugfFXvH3sv7iFGdLBi-3" value="&lt;font style=&quot;font-size: 15px;&quot;&gt;Формирование пакета данных&lt;/font&gt;" style="rounded=0;whiteSpace=wrap;html=1;strokeWidth=2;points=[[0,0.25,0,0,0],[0,0.5,0,0,0],[0,0.75,0,0,0],[0.33,0,0,0,0],[0.33,1,0,0,0],[0.5,0,0,0,0],[0.5,1,0,0,0],[0.67,0,0,0,0],[0.67,1,0,0,0],[1,0.25,0,0,0],[1,0.5,0,0,0],[1,0.75,0,0,0]];fontSize=20;fontStyle=1" vertex="1" parent="XWugfFXvH3sv7iFGdLBi-2">
          <mxGeometry width="120" height="80" as="geometry" />
        </mxCell>
        <mxCell id="XWugfFXvH3sv7iFGdLBi-4" value="A12" style="text;html=1;whiteSpace=wrap;strokeColor=none;fillColor=none;align=center;verticalAlign=middle;rounded=0;fontStyle=1" vertex="1" parent="XWugfFXvH3sv7iFGdLBi-2">
          <mxGeometry x="80" y="60" width="40" height="20" as="geometry" />
        </mxCell>
        <mxCell id="XWugfFXvH3sv7iFGdLBi-8" value="Данные&amp;nbsp;&lt;div&gt;датчиков&lt;/div&gt;" style="endArrow=classic;html=1;rounded=0;entryX=0;entryY=0.5;entryDx=0;entryDy=0;entryPerimeter=0;strokeWidth=2;fontStyle=1" edge="1" parent="XWugfFXvH3sv7iFGdLBi-1" target="XWugfFXvH3sv7iFGdLBi-18">
          <mxGeometry width="50" height="50" relative="1" as="geometry">
            <mxPoint x="40" y="200" as="sourcePoint" />
            <mxPoint x="160" y="199.5" as="targetPoint" />
            <mxPoint as="offset" />
          </mxGeometry>
        </mxCell>
        <mxCell id="XWugfFXvH3sv7iFGdLBi-9" value="Полученные данные" style="endArrow=classic;html=1;rounded=0;entryX=0;entryY=0.5;entryDx=0;entryDy=0;entryPerimeter=0;strokeWidth=2;exitX=1;exitY=0.5;exitDx=0;exitDy=0;exitPerimeter=0;edgeStyle=orthogonalEdgeStyle;fontStyle=1" edge="1" parent="XWugfFXvH3sv7iFGdLBi-1" source="XWugfFXvH3sv7iFGdLBi-18" target="XWugfFXvH3sv7iFGdLBi-3">
          <mxGeometry width="50" height="50" relative="1" as="geometry">
            <mxPoint x="300" y="199.5" as="sourcePoint" />
            <mxPoint x="560" y="199.5" as="targetPoint" />
          </mxGeometry>
        </mxCell>
        <mxCell id="XWugfFXvH3sv7iFGdLBi-15" value="Датчики" style="endArrow=classic;html=1;rounded=0;strokeWidth=2;entryX=0.33;entryY=1;entryDx=0;entryDy=0;entryPerimeter=0;fontStyle=1" edge="1" parent="XWugfFXvH3sv7iFGdLBi-1" target="XWugfFXvH3sv7iFGdLBi-18">
          <mxGeometry x="-0.7857" width="50" height="50" relative="1" as="geometry">
            <mxPoint x="200" y="520" as="sourcePoint" />
            <mxPoint x="200" y="255" as="targetPoint" />
            <mxPoint as="offset" />
          </mxGeometry>
        </mxCell>
        <mxCell id="XWugfFXvH3sv7iFGdLBi-17" value="Серверное ПО" style="endArrow=classic;html=1;rounded=0;strokeWidth=2;entryX=0.5;entryY=1;entryDx=0;entryDy=0;entryPerimeter=0;fontStyle=1" edge="1" parent="XWugfFXvH3sv7iFGdLBi-1" target="XWugfFXvH3sv7iFGdLBi-3">
          <mxGeometry x="-0.5" width="50" height="50" relative="1" as="geometry">
            <mxPoint x="460" y="520" as="sourcePoint" />
            <mxPoint x="450" y="410" as="targetPoint" />
            <mxPoint as="offset" />
          </mxGeometry>
        </mxCell>
        <mxCell id="XWugfFXvH3sv7iFGdLBi-18" value="&lt;font style=&quot;font-size: 15px;&quot;&gt;Получение данных&lt;/font&gt;" style="rounded=0;whiteSpace=wrap;html=1;strokeWidth=2;points=[[0,0.25,0,0,0],[0,0.5,0,0,0],[0,0.75,0,0,0],[0.33,0,0,0,0],[0.33,1,0,0,0],[0.5,0,0,0,0],[0.67,0,0,0,0],[0.67,1,0,0,0],[1,0.25,0,0,0],[1,0.5,0,0,0],[1,0.75,0,0,0]];fontSize=20;fontStyle=1" vertex="1" parent="XWugfFXvH3sv7iFGdLBi-1">
          <mxGeometry x="160" y="160" width="120" height="80" as="geometry" />
        </mxCell>
        <mxCell id="XWugfFXvH3sv7iFGdLBi-19" value="A11" style="text;html=1;whiteSpace=wrap;strokeColor=none;fillColor=none;align=center;verticalAlign=middle;rounded=0;fontStyle=1" vertex="1" parent="XWugfFXvH3sv7iFGdLBi-1">
          <mxGeometry x="240" y="220" width="40" height="20" as="geometry" />
        </mxCell>
        <mxCell id="XWugfFXvH3sv7iFGdLBi-20" value="" style="endArrow=classic;html=1;rounded=0;strokeWidth=2;entryX=0;entryY=1;entryDx=0;entryDy=0;edgeStyle=orthogonalEdgeStyle;" edge="1" parent="XWugfFXvH3sv7iFGdLBi-1" target="XWugfFXvH3sv7iFGdLBi-19">
          <mxGeometry x="-0.8571" width="50" height="50" relative="1" as="geometry">
            <mxPoint x="460" y="440" as="sourcePoint" />
            <mxPoint x="239.16999999999996" y="270" as="targetPoint" />
            <mxPoint as="offset" />
            <Array as="points">
              <mxPoint x="240" y="440" />
            </Array>
          </mxGeometry>
        </mxCell>
        <mxCell id="XWugfFXvH3sv7iFGdLBi-25" value="" style="endArrow=classic;html=1;rounded=0;strokeWidth=2;entryX=0.5;entryY=0;entryDx=0;entryDy=0;entryPerimeter=0;edgeStyle=orthogonalEdgeStyle;" edge="1" parent="XWugfFXvH3sv7iFGdLBi-1" target="XWugfFXvH3sv7iFGdLBi-18">
          <mxGeometry x="-0.7692" width="50" height="50" relative="1" as="geometry">
            <mxPoint x="460" y="80" as="sourcePoint" />
            <mxPoint x="205" y="-90" as="targetPoint" />
            <mxPoint as="offset" />
            <Array as="points">
              <mxPoint x="460" y="120" />
              <mxPoint x="220" y="120" />
            </Array>
          </mxGeometry>
        </mxCell>
        <mxCell id="XWugfFXvH3sv7iFGdLBi-26" value="Конфигурация системы" style="endArrow=classic;html=1;rounded=0;strokeWidth=2;entryX=0.5;entryY=0;entryDx=0;entryDy=0;entryPerimeter=0;fontStyle=1" edge="1" parent="XWugfFXvH3sv7iFGdLBi-1" target="XWugfFXvH3sv7iFGdLBi-3">
          <mxGeometry x="-0.7143" width="50" height="50" relative="1" as="geometry">
            <mxPoint x="460" y="40" as="sourcePoint" />
            <mxPoint x="459.5" y="315" as="targetPoint" />
            <mxPoint as="offset" />
          </mxGeometry>
        </mxCell>
        <mxCell id="XWugfFXvH3sv7iFGdLBi-28" value="Собранные&amp;nbsp;&lt;div&gt;данные&lt;/div&gt;" style="endArrow=classic;html=1;rounded=0;strokeWidth=2;exitX=1;exitY=0.5;exitDx=0;exitDy=0;exitPerimeter=0;fontStyle=1" edge="1" parent="XWugfFXvH3sv7iFGdLBi-1" source="XWugfFXvH3sv7iFGdLBi-3">
          <mxGeometry x="-0.0385" width="50" height="50" relative="1" as="geometry">
            <mxPoint x="530" y="345.20000000000005" as="sourcePoint" />
            <mxPoint x="640" y="360" as="targetPoint" />
            <mxPoint as="offset" />
          </mxGeometry>
        </mxCell>
      </root>
    </mxGraphModel>
  </diagram>
  <diagram name="IDEF0 (A2)" id="bB4jreQG_qfSd4dcHuDH">
    <mxGraphModel dx="861" dy="701" grid="1" gridSize="5" guides="1" tooltips="1" connect="1" arrows="1" fold="1" page="1" pageScale="1" pageWidth="1169" pageHeight="827" math="0" shadow="0">
      <root>
        <mxCell id="GLIYrRTczSgOeAOYXmda-0" />
        <mxCell id="GLIYrRTczSgOeAOYXmda-1" parent="GLIYrRTczSgOeAOYXmda-0" />
        <mxCell id="GLIYrRTczSgOeAOYXmda-2" value="" style="group" vertex="1" connectable="0" parent="GLIYrRTczSgOeAOYXmda-1">
          <mxGeometry x="420" y="320" width="120" height="80" as="geometry" />
        </mxCell>
        <mxCell id="GLIYrRTczSgOeAOYXmda-3" value="&lt;font style=&quot;font-size: 15px;&quot;&gt;Анализ данных&lt;/font&gt;" style="rounded=0;whiteSpace=wrap;html=1;strokeWidth=2;points=[[0,0.25,0,0,0],[0,0.5,0,0,0],[0,0.75,0,0,0],[0.33,0,0,0,0],[0.33,1,0,0,0],[0.5,0,0,0,0],[0.67,0,0,0,0],[0.67,1,0,0,0],[1,0.25,0,0,0],[1,0.5,0,0,0],[1,0.75,0,0,0]];fontSize=20;fontStyle=1" vertex="1" parent="GLIYrRTczSgOeAOYXmda-2">
          <mxGeometry width="120" height="80" as="geometry" />
        </mxCell>
        <mxCell id="GLIYrRTczSgOeAOYXmda-4" value="A22" style="text;html=1;whiteSpace=wrap;strokeColor=none;fillColor=none;align=center;verticalAlign=middle;rounded=0;fontStyle=1" vertex="1" parent="GLIYrRTczSgOeAOYXmda-2">
          <mxGeometry x="80" y="60" width="40" height="20" as="geometry" />
        </mxCell>
        <mxCell id="GLIYrRTczSgOeAOYXmda-5" value="" style="group" vertex="1" connectable="0" parent="GLIYrRTczSgOeAOYXmda-1">
          <mxGeometry x="660" y="480" width="120" height="80" as="geometry" />
        </mxCell>
        <mxCell id="GLIYrRTczSgOeAOYXmda-6" value="&lt;font style=&quot;font-size: 15px;&quot;&gt;Формирование оповещений&lt;/font&gt;" style="rounded=0;whiteSpace=wrap;html=1;strokeWidth=2;points=[[0,0.25,0,0,0],[0,0.5,0,0,0],[0,0.75,0,0,0],[0.33,0,0,0,0],[0.33,1,0,0,0],[0.5,0,0,0,0],[0.67,0,0,0,0],[0.67,1,0,0,0],[1,0.25,0,0,0],[1,0.5,0,0,0],[1,0.75,0,0,0]];fontSize=20;fontStyle=1" vertex="1" parent="GLIYrRTczSgOeAOYXmda-5">
          <mxGeometry width="120" height="80" as="geometry" />
        </mxCell>
        <mxCell id="GLIYrRTczSgOeAOYXmda-7" value="A23" style="text;html=1;whiteSpace=wrap;strokeColor=none;fillColor=none;align=center;verticalAlign=middle;rounded=0;fontStyle=1" vertex="1" parent="GLIYrRTczSgOeAOYXmda-5">
          <mxGeometry x="80" y="60" width="40" height="20" as="geometry" />
        </mxCell>
        <mxCell id="GLIYrRTczSgOeAOYXmda-8" value="Собранные данные" style="endArrow=classic;html=1;rounded=0;entryX=0;entryY=0.5;entryDx=0;entryDy=0;entryPerimeter=0;strokeWidth=2;fontStyle=1" edge="1" parent="GLIYrRTczSgOeAOYXmda-1" target="GLIYrRTczSgOeAOYXmda-18">
          <mxGeometry width="50" height="50" relative="1" as="geometry">
            <mxPoint x="20" y="200" as="sourcePoint" />
            <mxPoint x="180" y="199.5" as="targetPoint" />
            <mxPoint as="offset" />
          </mxGeometry>
        </mxCell>
        <mxCell id="GLIYrRTczSgOeAOYXmda-9" value="Записанные данные" style="endArrow=classic;html=1;rounded=0;entryX=0;entryY=0.25;entryDx=0;entryDy=0;entryPerimeter=0;strokeWidth=2;exitX=1;exitY=0.5;exitDx=0;exitDy=0;exitPerimeter=0;edgeStyle=orthogonalEdgeStyle;fontStyle=1" edge="1" parent="GLIYrRTczSgOeAOYXmda-1" source="GLIYrRTczSgOeAOYXmda-18" target="GLIYrRTczSgOeAOYXmda-3">
          <mxGeometry width="50" height="50" relative="1" as="geometry">
            <mxPoint x="320" y="199.5" as="sourcePoint" />
            <mxPoint x="580" y="199.5" as="targetPoint" />
          </mxGeometry>
        </mxCell>
        <mxCell id="GLIYrRTczSgOeAOYXmda-10" value="Оцененные данные" style="endArrow=classic;html=1;rounded=0;entryX=0.33;entryY=0;entryDx=0;entryDy=0;entryPerimeter=0;strokeWidth=2;edgeStyle=orthogonalEdgeStyle;exitX=1;exitY=0.75;exitDx=0;exitDy=0;exitPerimeter=0;fontStyle=1" edge="1" parent="GLIYrRTczSgOeAOYXmda-1" source="GLIYrRTczSgOeAOYXmda-3" target="GLIYrRTczSgOeAOYXmda-6">
          <mxGeometry x="-0.3837" width="50" height="50" relative="1" as="geometry">
            <mxPoint x="555" y="385" as="sourcePoint" />
            <mxPoint x="585" y="500" as="targetPoint" />
            <mxPoint as="offset" />
          </mxGeometry>
        </mxCell>
        <mxCell id="GLIYrRTczSgOeAOYXmda-12" value="Аварийные&amp;nbsp;&lt;div&gt;оповещения&lt;/div&gt;" style="endArrow=classic;html=1;rounded=0;strokeWidth=2;exitX=1;exitY=0.5;exitDx=0;exitDy=0;exitPerimeter=0;fontStyle=1" edge="1" parent="GLIYrRTczSgOeAOYXmda-1" source="GLIYrRTczSgOeAOYXmda-6">
          <mxGeometry width="50" height="50" relative="1" as="geometry">
            <mxPoint x="780" y="519.8" as="sourcePoint" />
            <mxPoint x="940" y="520" as="targetPoint" />
          </mxGeometry>
        </mxCell>
        <mxCell id="GLIYrRTczSgOeAOYXmda-18" value="&lt;span style=&quot;font-size: 15px;&quot;&gt;Запись данных в БД&lt;/span&gt;" style="rounded=0;whiteSpace=wrap;html=1;strokeWidth=2;points=[[0,0.25,0,0,0],[0,0.5,0,0,0],[0,0.75,0,0,0],[0.33,0,0,0,0],[0.33,1,0,0,0],[0.5,0,0,0,0],[0.5,1,0,0,0],[0.67,0,0,0,0],[0.67,1,0,0,0],[1,0.25,0,0,0],[1,0.5,0,0,0],[1,0.75,0,0,0]];fontSize=20;fontStyle=1" vertex="1" parent="GLIYrRTczSgOeAOYXmda-1">
          <mxGeometry x="180" y="160" width="120" height="80" as="geometry" />
        </mxCell>
        <mxCell id="GLIYrRTczSgOeAOYXmda-19" value="A21" style="text;html=1;whiteSpace=wrap;strokeColor=none;fillColor=none;align=center;verticalAlign=middle;rounded=0;fontStyle=1" vertex="1" parent="GLIYrRTczSgOeAOYXmda-1">
          <mxGeometry x="260" y="220" width="40" height="20" as="geometry" />
        </mxCell>
        <mxCell id="GLIYrRTczSgOeAOYXmda-22" value="СУБД" style="endArrow=classic;html=1;rounded=0;strokeWidth=2;fontStyle=1;entryX=0;entryY=1;entryDx=0;entryDy=0;" edge="1" parent="GLIYrRTczSgOeAOYXmda-1" target="GLIYrRTczSgOeAOYXmda-7">
          <mxGeometry x="-0.6842" width="50" height="50" relative="1" as="geometry">
            <mxPoint x="740" y="680" as="sourcePoint" />
            <mxPoint x="775" y="575" as="targetPoint" />
            <mxPoint as="offset" />
          </mxGeometry>
        </mxCell>
        <mxCell id="GLIYrRTczSgOeAOYXmda-25" value="" style="endArrow=classic;html=1;rounded=0;strokeWidth=2;entryX=0.5;entryY=0;entryDx=0;entryDy=0;entryPerimeter=0;edgeStyle=orthogonalEdgeStyle;" edge="1" parent="GLIYrRTczSgOeAOYXmda-1" target="GLIYrRTczSgOeAOYXmda-18">
          <mxGeometry x="-0.7692" width="50" height="50" relative="1" as="geometry">
            <mxPoint x="485" y="120" as="sourcePoint" />
            <mxPoint x="225" y="-90" as="targetPoint" />
            <mxPoint as="offset" />
            <Array as="points">
              <mxPoint x="240" y="120" />
            </Array>
          </mxGeometry>
        </mxCell>
        <mxCell id="GLIYrRTczSgOeAOYXmda-26" value="Конфигурация системы" style="endArrow=classic;html=1;rounded=0;strokeWidth=2;entryX=0.5;entryY=0;entryDx=0;entryDy=0;entryPerimeter=0;fontStyle=1" edge="1" parent="GLIYrRTczSgOeAOYXmda-1" target="GLIYrRTczSgOeAOYXmda-3">
          <mxGeometry x="-0.7143" width="50" height="50" relative="1" as="geometry">
            <mxPoint x="480" y="40" as="sourcePoint" />
            <mxPoint x="479.5" y="315" as="targetPoint" />
            <mxPoint as="offset" />
          </mxGeometry>
        </mxCell>
        <mxCell id="GLIYrRTczSgOeAOYXmda-27" value="" style="endArrow=classic;html=1;rounded=0;strokeWidth=2;entryX=0.67;entryY=0;entryDx=0;entryDy=0;entryPerimeter=0;edgeStyle=orthogonalEdgeStyle;" edge="1" parent="GLIYrRTczSgOeAOYXmda-1" target="GLIYrRTczSgOeAOYXmda-6">
          <mxGeometry x="-0.7692" width="50" height="50" relative="1" as="geometry">
            <mxPoint x="480" y="120" as="sourcePoint" />
            <mxPoint x="495" y="170" as="targetPoint" />
            <mxPoint as="offset" />
            <Array as="points">
              <mxPoint x="740" y="120" />
              <mxPoint x="740" y="480" />
            </Array>
          </mxGeometry>
        </mxCell>
        <mxCell id="GLIYrRTczSgOeAOYXmda-28" value="Обработанные данные" style="endArrow=classic;html=1;rounded=0;strokeWidth=2;exitX=1;exitY=0.25;exitDx=0;exitDy=0;exitPerimeter=0;fontStyle=1;jumpStyle=arc;" edge="1" parent="GLIYrRTczSgOeAOYXmda-1" source="GLIYrRTczSgOeAOYXmda-3">
          <mxGeometry x="0.5682" width="50" height="50" relative="1" as="geometry">
            <mxPoint x="550" y="345.20000000000005" as="sourcePoint" />
            <mxPoint x="940" y="340" as="targetPoint" />
            <mxPoint as="offset" />
          </mxGeometry>
        </mxCell>
        <mxCell id="GLIYrRTczSgOeAOYXmda-17" value="Серверное ПО" style="endArrow=classic;html=1;rounded=0;strokeWidth=2;entryX=0.33;entryY=1;entryDx=0;entryDy=0;entryPerimeter=0;fontStyle=1;jumpStyle=arc;" edge="1" parent="GLIYrRTczSgOeAOYXmda-1" target="GLIYrRTczSgOeAOYXmda-18">
          <mxGeometry x="-0.9091" width="50" height="50" relative="1" as="geometry">
            <mxPoint x="220" y="680" as="sourcePoint" />
            <mxPoint x="219.9999999999999" y="330" as="targetPoint" />
            <mxPoint as="offset" />
          </mxGeometry>
        </mxCell>
        <mxCell id="ExCTvmAevhflUnV5jjdj-0" value="" style="endArrow=classic;html=1;rounded=0;strokeWidth=2;edgeStyle=orthogonalEdgeStyle;entryX=0.67;entryY=1;entryDx=0;entryDy=0;entryPerimeter=0;" edge="1" parent="GLIYrRTczSgOeAOYXmda-1" target="GLIYrRTczSgOeAOYXmda-18">
          <mxGeometry x="-0.8571" width="50" height="50" relative="1" as="geometry">
            <mxPoint x="740" y="640" as="sourcePoint" />
            <mxPoint x="220" y="260" as="targetPoint" />
            <mxPoint as="offset" />
            <Array as="points">
              <mxPoint x="260" y="640" />
            </Array>
          </mxGeometry>
        </mxCell>
        <mxCell id="1pP7KkPrNP9bQnezCf5F-3" value="" style="endArrow=classic;html=1;rounded=0;strokeWidth=2;edgeStyle=orthogonalEdgeStyle;entryX=0;entryY=1;entryDx=0;entryDy=0;" edge="1" parent="GLIYrRTczSgOeAOYXmda-1" target="GLIYrRTczSgOeAOYXmda-4">
          <mxGeometry x="-0.8571" width="50" height="50" relative="1" as="geometry">
            <mxPoint x="740" y="640" as="sourcePoint" />
            <mxPoint x="615" y="595" as="targetPoint" />
            <mxPoint as="offset" />
            <Array as="points">
              <mxPoint x="500" y="640" />
            </Array>
          </mxGeometry>
        </mxCell>
        <mxCell id="1pP7KkPrNP9bQnezCf5F-2" value="" style="endArrow=classic;html=1;rounded=0;strokeWidth=2;edgeStyle=orthogonalEdgeStyle;entryX=0.33;entryY=1;entryDx=0;entryDy=0;entryPerimeter=0;jumpStyle=arc;" edge="1" parent="GLIYrRTczSgOeAOYXmda-1" target="GLIYrRTczSgOeAOYXmda-3">
          <mxGeometry x="-0.8571" width="50" height="50" relative="1" as="geometry">
            <mxPoint x="220" y="600" as="sourcePoint" />
            <mxPoint x="460" y="400" as="targetPoint" />
            <mxPoint as="offset" />
            <Array as="points">
              <mxPoint x="220" y="600" />
              <mxPoint x="460" y="600" />
            </Array>
          </mxGeometry>
        </mxCell>
        <mxCell id="GLIYrRTczSgOeAOYXmda-23" value="" style="endArrow=classic;html=1;rounded=0;strokeWidth=2;edgeStyle=orthogonalEdgeStyle;entryX=0.33;entryY=1;entryDx=0;entryDy=0;entryPerimeter=0;jumpStyle=arc;" edge="1" parent="GLIYrRTczSgOeAOYXmda-1" target="GLIYrRTczSgOeAOYXmda-6">
          <mxGeometry x="-0.8571" width="50" height="50" relative="1" as="geometry">
            <mxPoint x="220" y="600" as="sourcePoint" />
            <mxPoint x="720" y="560" as="targetPoint" />
            <mxPoint as="offset" />
            <Array as="points">
              <mxPoint x="700" y="600" />
              <mxPoint x="700" y="560" />
            </Array>
          </mxGeometry>
        </mxCell>
      </root>
    </mxGraphModel>
  </diagram>
  <diagram name="IDEF0 (A3)" id="zGDFh2fp-aCzVms3IuSZ">
    <mxGraphModel dx="1503" dy="803" grid="1" gridSize="5" guides="1" tooltips="1" connect="1" arrows="1" fold="1" page="1" pageScale="1" pageWidth="1169" pageHeight="827" math="0" shadow="0">
      <root>
        <mxCell id="dtrRis1pJQ0uhnTCK49p-0" />
        <mxCell id="dtrRis1pJQ0uhnTCK49p-1" parent="dtrRis1pJQ0uhnTCK49p-0" />
        <mxCell id="dtrRis1pJQ0uhnTCK49p-2" value="" style="group" vertex="1" connectable="0" parent="dtrRis1pJQ0uhnTCK49p-1">
          <mxGeometry x="480" y="340" width="120" height="80" as="geometry" />
        </mxCell>
        <mxCell id="dtrRis1pJQ0uhnTCK49p-3" value="&lt;font style=&quot;font-size: 15px;&quot;&gt;Визуализация данных&lt;/font&gt;" style="rounded=0;whiteSpace=wrap;html=1;strokeWidth=2;points=[[0,0.25,0,0,0],[0,0.5,0,0,0],[0,0.75,0,0,0],[0.25,1,0,0,0],[0.33,0,0,0,0],[0.5,0,0,0,0],[0.5,1,0,0,0],[0.67,0,0,0,0],[0.75,1,0,0,0],[1,0.25,0,0,0],[1,0.5,0,0,0],[1,0.75,0,0,0]];fontSize=20;fontStyle=1" vertex="1" parent="dtrRis1pJQ0uhnTCK49p-2">
          <mxGeometry width="120" height="80" as="geometry" />
        </mxCell>
        <mxCell id="dtrRis1pJQ0uhnTCK49p-4" value="A32" style="text;html=1;whiteSpace=wrap;strokeColor=none;fillColor=none;align=center;verticalAlign=middle;rounded=0;fontStyle=1" vertex="1" parent="dtrRis1pJQ0uhnTCK49p-2">
          <mxGeometry x="80" y="60" width="40" height="20" as="geometry" />
        </mxCell>
        <mxCell id="dtrRis1pJQ0uhnTCK49p-5" value="" style="group" vertex="1" connectable="0" parent="dtrRis1pJQ0uhnTCK49p-1">
          <mxGeometry x="720" y="500" width="120" height="80" as="geometry" />
        </mxCell>
        <mxCell id="dtrRis1pJQ0uhnTCK49p-6" value="&lt;font style=&quot;font-size: 15px;&quot;&gt;Принятие решений&lt;/font&gt;" style="rounded=0;whiteSpace=wrap;html=1;strokeWidth=2;points=[[0,0.25,0,0,0],[0,0.5,0,0,0],[0,0.75,0,0,0],[0.25,1,0,0,0],[0.33,0,0,0,0],[0.5,0,0,0,0],[0.5,1,0,0,0],[0.67,0,0,0,0],[0.75,1,0,0,0],[1,0.25,0,0,0],[1,0.5,0,0,0],[1,0.75,0,0,0]];fontSize=20;fontStyle=1" vertex="1" parent="dtrRis1pJQ0uhnTCK49p-5">
          <mxGeometry width="120" height="80" as="geometry" />
        </mxCell>
        <mxCell id="dtrRis1pJQ0uhnTCK49p-7" value="A33" style="text;html=1;whiteSpace=wrap;strokeColor=none;fillColor=none;align=center;verticalAlign=middle;rounded=0;fontStyle=1" vertex="1" parent="dtrRis1pJQ0uhnTCK49p-5">
          <mxGeometry x="80" y="60" width="40" height="20" as="geometry" />
        </mxCell>
        <mxCell id="dtrRis1pJQ0uhnTCK49p-8" value="Обработанные&amp;nbsp;&lt;div&gt;данные&lt;/div&gt;" style="endArrow=classic;html=1;rounded=0;entryX=0;entryY=0.25;entryDx=0;entryDy=0;entryPerimeter=0;strokeWidth=2;fontStyle=1" edge="1" parent="dtrRis1pJQ0uhnTCK49p-1" target="dtrRis1pJQ0uhnTCK49p-18">
          <mxGeometry x="-0.4" width="50" height="50" relative="1" as="geometry">
            <mxPoint x="40" y="200" as="sourcePoint" />
            <mxPoint x="240" y="219.5" as="targetPoint" />
            <mxPoint as="offset" />
          </mxGeometry>
        </mxCell>
        <mxCell id="dtrRis1pJQ0uhnTCK49p-12" value="Управляющие команды" style="endArrow=classic;html=1;rounded=0;strokeWidth=2;exitX=1;exitY=0.5;exitDx=0;exitDy=0;exitPerimeter=0;fontStyle=1" edge="1" parent="dtrRis1pJQ0uhnTCK49p-1" source="dtrRis1pJQ0uhnTCK49p-6">
          <mxGeometry width="50" height="50" relative="1" as="geometry">
            <mxPoint x="800" y="539.8" as="sourcePoint" />
            <mxPoint x="1040" y="540" as="targetPoint" />
          </mxGeometry>
        </mxCell>
        <mxCell id="dtrRis1pJQ0uhnTCK49p-15" value="Серверное ПО" style="endArrow=classic;html=1;rounded=0;strokeWidth=2;fontStyle=1;endFill=1;entryX=0.25;entryY=1;entryDx=0;entryDy=0;entryPerimeter=0;" edge="1" parent="dtrRis1pJQ0uhnTCK49p-1" target="dtrRis1pJQ0uhnTCK49p-18">
          <mxGeometry x="-0.9038" width="50" height="50" relative="1" as="geometry">
            <mxPoint x="270" y="780" as="sourcePoint" />
            <mxPoint x="300" y="615" as="targetPoint" />
            <mxPoint as="offset" />
          </mxGeometry>
        </mxCell>
        <mxCell id="dtrRis1pJQ0uhnTCK49p-16" value="Клиентское ПО" style="endArrow=classic;html=1;rounded=0;strokeWidth=2;fontStyle=1;endFill=1;entryX=0.75;entryY=1;entryDx=0;entryDy=0;entryPerimeter=0;" edge="1" parent="dtrRis1pJQ0uhnTCK49p-1" target="dtrRis1pJQ0uhnTCK49p-6">
          <mxGeometry x="-0.5" width="50" height="50" relative="1" as="geometry">
            <mxPoint x="810" y="780" as="sourcePoint" />
            <mxPoint x="780" y="585" as="targetPoint" />
            <mxPoint as="offset" />
          </mxGeometry>
        </mxCell>
        <mxCell id="dtrRis1pJQ0uhnTCK49p-18" value="&lt;span style=&quot;font-size: 15px;&quot;&gt;Формирование отчетов&lt;/span&gt;" style="rounded=0;whiteSpace=wrap;html=1;strokeWidth=2;points=[[0,0.25,0,0,0],[0,0.5,0,0,0],[0,0.75,0,0,0],[0.25,1,0,0,0],[0.33,0,0,0,0],[0.5,0,0,0,0],[0.5,1,0,0,0],[0.67,0,0,0,0],[0.75,1,0,0,0],[1,0.25,0,0,0],[1,0.5,0,0,0],[1,0.75,0,0,0]];fontSize=20;fontStyle=1" vertex="1" parent="dtrRis1pJQ0uhnTCK49p-1">
          <mxGeometry x="240" y="180" width="120" height="80" as="geometry" />
        </mxCell>
        <mxCell id="dtrRis1pJQ0uhnTCK49p-19" value="A31" style="text;html=1;whiteSpace=wrap;strokeColor=none;fillColor=none;align=center;verticalAlign=middle;rounded=0;fontStyle=1" vertex="1" parent="dtrRis1pJQ0uhnTCK49p-1">
          <mxGeometry x="320" y="240" width="40" height="20" as="geometry" />
        </mxCell>
        <mxCell id="dtrRis1pJQ0uhnTCK49p-22" value="СУБД" style="endArrow=classic;html=1;rounded=0;strokeWidth=2;fontStyle=1;endFill=1;entryX=0.5;entryY=1;entryDx=0;entryDy=0;entryPerimeter=0;" edge="1" parent="dtrRis1pJQ0uhnTCK49p-1" target="dtrRis1pJQ0uhnTCK49p-3">
          <mxGeometry x="-0.9118" width="50" height="50" relative="1" as="geometry">
            <mxPoint x="540" y="780" as="sourcePoint" />
            <mxPoint x="540" y="660" as="targetPoint" />
            <mxPoint as="offset" />
          </mxGeometry>
        </mxCell>
        <mxCell id="dtrRis1pJQ0uhnTCK49p-24" value="Политика&amp;nbsp;&lt;div&gt;безопасности&lt;/div&gt;" style="endArrow=classic;html=1;rounded=0;strokeWidth=2;fontStyle=1;endFill=1;entryX=0.67;entryY=0;entryDx=0;entryDy=0;entryPerimeter=0;" edge="1" parent="dtrRis1pJQ0uhnTCK49p-1" target="dtrRis1pJQ0uhnTCK49p-6">
          <mxGeometry x="-0.8958" width="50" height="50" relative="1" as="geometry">
            <mxPoint x="800" y="20" as="sourcePoint" />
            <mxPoint x="780" y="140" as="targetPoint" />
            <mxPoint as="offset" />
          </mxGeometry>
        </mxCell>
        <mxCell id="dtrRis1pJQ0uhnTCK49p-26" value="Конфигурация&amp;nbsp;&lt;div&gt;системы&lt;/div&gt;" style="endArrow=classic;html=1;rounded=0;strokeWidth=2;fontStyle=1;endFill=1;entryX=0.33;entryY=0;entryDx=0;entryDy=0;entryPerimeter=0;" edge="1" parent="dtrRis1pJQ0uhnTCK49p-1" target="dtrRis1pJQ0uhnTCK49p-18">
          <mxGeometry x="-0.625" width="50" height="50" relative="1" as="geometry">
            <mxPoint x="280" y="20" as="sourcePoint" />
            <mxPoint x="300" y="140" as="targetPoint" />
            <mxPoint as="offset" />
          </mxGeometry>
        </mxCell>
        <mxCell id="pZKQyWr8XuX-NteTL4JM-1" value="" style="endArrow=classic;html=1;rounded=0;strokeWidth=2;entryX=0.33;entryY=0;entryDx=0;entryDy=0;entryPerimeter=0;edgeStyle=orthogonalEdgeStyle;" edge="1" parent="dtrRis1pJQ0uhnTCK49p-1" target="dtrRis1pJQ0uhnTCK49p-3">
          <mxGeometry x="-0.7692" width="50" height="50" relative="1" as="geometry">
            <mxPoint x="280" y="100" as="sourcePoint" />
            <mxPoint x="605" y="195" as="targetPoint" />
            <mxPoint as="offset" />
            <Array as="points">
              <mxPoint x="520" y="100" />
              <mxPoint x="520" y="340" />
            </Array>
          </mxGeometry>
        </mxCell>
        <mxCell id="pZKQyWr8XuX-NteTL4JM-2" value="" style="endArrow=classic;html=1;rounded=0;strokeWidth=2;entryX=0.33;entryY=0;entryDx=0;entryDy=0;entryPerimeter=0;edgeStyle=orthogonalEdgeStyle;" edge="1" parent="dtrRis1pJQ0uhnTCK49p-1" target="dtrRis1pJQ0uhnTCK49p-6">
          <mxGeometry x="-0.7692" width="50" height="50" relative="1" as="geometry">
            <mxPoint x="280" y="100" as="sourcePoint" />
            <mxPoint x="760" y="355" as="targetPoint" />
            <mxPoint as="offset" />
            <Array as="points">
              <mxPoint x="760" y="100" />
            </Array>
          </mxGeometry>
        </mxCell>
        <mxCell id="dtrRis1pJQ0uhnTCK49p-25" value="" style="endArrow=classic;html=1;rounded=0;strokeWidth=2;entryX=0.67;entryY=0;entryDx=0;entryDy=0;entryPerimeter=0;edgeStyle=orthogonalEdgeStyle;jumpStyle=arc;" edge="1" parent="dtrRis1pJQ0uhnTCK49p-1" target="dtrRis1pJQ0uhnTCK49p-3">
          <mxGeometry x="-0.7692" width="50" height="50" relative="1" as="geometry">
            <mxPoint x="800" y="140" as="sourcePoint" />
            <mxPoint x="285" y="-70" as="targetPoint" />
            <mxPoint as="offset" />
            <Array as="points">
              <mxPoint x="560" y="140" />
              <mxPoint x="560" y="340" />
            </Array>
          </mxGeometry>
        </mxCell>
        <mxCell id="pZKQyWr8XuX-NteTL4JM-0" value="" style="endArrow=classic;html=1;rounded=0;strokeWidth=2;entryX=0.67;entryY=0;entryDx=0;entryDy=0;entryPerimeter=0;edgeStyle=orthogonalEdgeStyle;jumpStyle=arc;" edge="1" parent="dtrRis1pJQ0uhnTCK49p-1" target="dtrRis1pJQ0uhnTCK49p-18">
          <mxGeometry x="-0.7692" width="50" height="50" relative="1" as="geometry">
            <mxPoint x="560" y="140" as="sourcePoint" />
            <mxPoint x="405" y="145" as="targetPoint" />
            <mxPoint as="offset" />
            <Array as="points">
              <mxPoint x="320" y="140" />
            </Array>
          </mxGeometry>
        </mxCell>
        <mxCell id="dtrRis1pJQ0uhnTCK49p-9" value="Отчеты" style="endArrow=classic;html=1;rounded=0;strokeWidth=2;exitX=1;exitY=0.5;exitDx=0;exitDy=0;exitPerimeter=0;edgeStyle=orthogonalEdgeStyle;fontStyle=1;jumpStyle=arc;" edge="1" parent="dtrRis1pJQ0uhnTCK49p-1" source="dtrRis1pJQ0uhnTCK49p-18">
          <mxGeometry x="0.7059" width="50" height="50" relative="1" as="geometry">
            <mxPoint x="380" y="219.5" as="sourcePoint" />
            <mxPoint x="1040" y="220" as="targetPoint" />
            <mxPoint as="offset" />
          </mxGeometry>
        </mxCell>
        <mxCell id="dtrRis1pJQ0uhnTCK49p-28" value="Графики" style="endArrow=classic;html=1;rounded=0;strokeWidth=2;exitX=1;exitY=0.5;exitDx=0;exitDy=0;exitPerimeter=0;fontStyle=1;jumpStyle=arc;" edge="1" parent="dtrRis1pJQ0uhnTCK49p-1" source="dtrRis1pJQ0uhnTCK49p-3">
          <mxGeometry x="0.5455" width="50" height="50" relative="1" as="geometry">
            <mxPoint x="570" y="365.20000000000005" as="sourcePoint" />
            <mxPoint x="1040" y="380" as="targetPoint" />
            <mxPoint as="offset" />
          </mxGeometry>
        </mxCell>
        <mxCell id="pZKQyWr8XuX-NteTL4JM-13" value="" style="endArrow=classic;html=1;rounded=0;strokeWidth=2;edgeStyle=orthogonalEdgeStyle;entryX=0.75;entryY=1;entryDx=0;entryDy=0;entryPerimeter=0;jumpStyle=arc;" edge="1" parent="dtrRis1pJQ0uhnTCK49p-1" target="dtrRis1pJQ0uhnTCK49p-18">
          <mxGeometry x="-0.8571" width="50" height="50" relative="1" as="geometry">
            <mxPoint x="810" y="700" as="sourcePoint" />
            <mxPoint x="425" y="550" as="targetPoint" />
            <mxPoint as="offset" />
            <Array as="points">
              <mxPoint x="330" y="700" />
            </Array>
          </mxGeometry>
        </mxCell>
        <mxCell id="pZKQyWr8XuX-NteTL4JM-14" value="" style="endArrow=classic;html=1;rounded=0;strokeWidth=2;edgeStyle=orthogonalEdgeStyle;entryX=0.75;entryY=1;entryDx=0;entryDy=0;entryPerimeter=0;" edge="1" parent="dtrRis1pJQ0uhnTCK49p-1" target="dtrRis1pJQ0uhnTCK49p-3">
          <mxGeometry x="-0.8571" width="50" height="50" relative="1" as="geometry">
            <mxPoint x="810" y="700" as="sourcePoint" />
            <mxPoint x="480" y="330" as="targetPoint" />
            <mxPoint as="offset" />
            <Array as="points">
              <mxPoint x="570" y="700" />
            </Array>
          </mxGeometry>
        </mxCell>
        <mxCell id="pZKQyWr8XuX-NteTL4JM-10" value="" style="endArrow=classic;html=1;rounded=0;strokeWidth=2;edgeStyle=orthogonalEdgeStyle;entryX=0.5;entryY=1;entryDx=0;entryDy=0;entryPerimeter=0;jumpStyle=arc;" edge="1" parent="dtrRis1pJQ0uhnTCK49p-1" target="dtrRis1pJQ0uhnTCK49p-6">
          <mxGeometry x="-0.8571" width="50" height="50" relative="1" as="geometry">
            <mxPoint x="540" y="660" as="sourcePoint" />
            <mxPoint x="755" y="595" as="targetPoint" />
            <mxPoint as="offset" />
            <Array as="points">
              <mxPoint x="780" y="660" />
            </Array>
          </mxGeometry>
        </mxCell>
        <mxCell id="pZKQyWr8XuX-NteTL4JM-11" value="" style="endArrow=classic;html=1;rounded=0;strokeWidth=2;edgeStyle=orthogonalEdgeStyle;entryX=0.5;entryY=1;entryDx=0;entryDy=0;entryPerimeter=0;jumpStyle=arc;" edge="1" parent="dtrRis1pJQ0uhnTCK49p-1" target="dtrRis1pJQ0uhnTCK49p-18">
          <mxGeometry x="-0.8571" width="50" height="50" relative="1" as="geometry">
            <mxPoint x="540" y="660" as="sourcePoint" />
            <mxPoint x="345" y="490" as="targetPoint" />
            <mxPoint as="offset" />
            <Array as="points">
              <mxPoint x="300" y="660" />
            </Array>
          </mxGeometry>
        </mxCell>
        <mxCell id="pZKQyWr8XuX-NteTL4JM-8" value="" style="endArrow=classic;html=1;rounded=0;strokeWidth=2;edgeStyle=orthogonalEdgeStyle;entryX=0.25;entryY=1;entryDx=0;entryDy=0;entryPerimeter=0;jumpStyle=arc;" edge="1" parent="dtrRis1pJQ0uhnTCK49p-1" target="dtrRis1pJQ0uhnTCK49p-3">
          <mxGeometry x="-0.8571" width="50" height="50" relative="1" as="geometry">
            <mxPoint x="270" y="620" as="sourcePoint" />
            <mxPoint x="700" y="470" as="targetPoint" />
            <mxPoint as="offset" />
            <Array as="points">
              <mxPoint x="510" y="620" />
            </Array>
          </mxGeometry>
        </mxCell>
        <mxCell id="dtrRis1pJQ0uhnTCK49p-23" value="" style="endArrow=classic;html=1;rounded=0;strokeWidth=2;edgeStyle=orthogonalEdgeStyle;entryX=0.25;entryY=1;entryDx=0;entryDy=0;entryPerimeter=0;jumpStyle=arc;" edge="1" parent="dtrRis1pJQ0uhnTCK49p-1" target="dtrRis1pJQ0uhnTCK49p-6">
          <mxGeometry x="-0.8571" width="50" height="50" relative="1" as="geometry">
            <mxPoint x="270" y="620" as="sourcePoint" />
            <mxPoint x="780" y="585" as="targetPoint" />
            <mxPoint as="offset" />
            <Array as="points">
              <mxPoint x="750" y="620" />
            </Array>
          </mxGeometry>
        </mxCell>
        <mxCell id="dtrRis1pJQ0uhnTCK49p-14" value="Команды&amp;nbsp;&lt;div&gt;оператора&lt;/div&gt;" style="endArrow=classic;html=1;rounded=0;strokeWidth=2;entryX=0;entryY=0.75;entryDx=0;entryDy=0;entryPerimeter=0;fontStyle=1;jumpStyle=arc;" edge="1" parent="dtrRis1pJQ0uhnTCK49p-1" target="dtrRis1pJQ0uhnTCK49p-6">
          <mxGeometry x="-0.8382" width="50" height="50" relative="1" as="geometry">
            <mxPoint x="40" y="560" as="sourcePoint" />
            <mxPoint x="700" y="575" as="targetPoint" />
            <mxPoint as="offset" />
          </mxGeometry>
        </mxCell>
        <mxCell id="pZKQyWr8XuX-NteTL4JM-3" value="" style="endArrow=classic;html=1;rounded=0;strokeWidth=2;edgeStyle=orthogonalEdgeStyle;entryX=0;entryY=0.25;entryDx=0;entryDy=0;entryPerimeter=0;jumpStyle=arc;" edge="1" parent="dtrRis1pJQ0uhnTCK49p-1" target="dtrRis1pJQ0uhnTCK49p-6">
          <mxGeometry x="-0.8571" width="50" height="50" relative="1" as="geometry">
            <mxPoint x="200" y="200" as="sourcePoint" />
            <mxPoint x="685" y="515" as="targetPoint" />
            <mxPoint as="offset" />
            <Array as="points">
              <mxPoint x="200" y="520" />
            </Array>
          </mxGeometry>
        </mxCell>
        <mxCell id="pZKQyWr8XuX-NteTL4JM-4" value="" style="endArrow=classic;html=1;rounded=0;strokeWidth=2;edgeStyle=orthogonalEdgeStyle;entryX=0;entryY=0.75;entryDx=0;entryDy=0;entryPerimeter=0;jumpStyle=arc;" edge="1" parent="dtrRis1pJQ0uhnTCK49p-1" target="dtrRis1pJQ0uhnTCK49p-3">
          <mxGeometry x="-0.8571" width="50" height="50" relative="1" as="geometry">
            <mxPoint x="160" y="560" as="sourcePoint" />
            <mxPoint x="515" y="525" as="targetPoint" />
            <mxPoint as="offset" />
            <Array as="points">
              <mxPoint x="160" y="400" />
            </Array>
          </mxGeometry>
        </mxCell>
        <mxCell id="IDgz8VqI9uQIRyZGdDOr-0" value="" style="endArrow=classic;html=1;rounded=0;strokeWidth=2;edgeStyle=orthogonalEdgeStyle;entryX=0;entryY=0.25;entryDx=0;entryDy=0;entryPerimeter=0;jumpStyle=arc;" edge="1" parent="dtrRis1pJQ0uhnTCK49p-1" target="dtrRis1pJQ0uhnTCK49p-3">
          <mxGeometry x="-0.8571" width="50" height="50" relative="1" as="geometry">
            <mxPoint x="200" y="200" as="sourcePoint" />
            <mxPoint x="285" y="320" as="targetPoint" />
            <mxPoint as="offset" />
            <Array as="points">
              <mxPoint x="200" y="360" />
            </Array>
          </mxGeometry>
        </mxCell>
        <mxCell id="pZKQyWr8XuX-NteTL4JM-5" value="" style="endArrow=classic;html=1;rounded=0;strokeWidth=2;edgeStyle=orthogonalEdgeStyle;entryX=0;entryY=0.75;entryDx=0;entryDy=0;entryPerimeter=0;jumpStyle=arc;" edge="1" parent="dtrRis1pJQ0uhnTCK49p-1" target="dtrRis1pJQ0uhnTCK49p-18">
          <mxGeometry x="-0.8571" width="50" height="50" relative="1" as="geometry">
            <mxPoint x="160" y="560" as="sourcePoint" />
            <mxPoint x="655" y="415" as="targetPoint" />
            <mxPoint as="offset" />
            <Array as="points">
              <mxPoint x="160" y="240" />
            </Array>
          </mxGeometry>
        </mxCell>
      </root>
    </mxGraphModel>
  </diagram>
</mxfile>
